# xmcd
#
# Track frame offsets: 
#        150
#        27253
#        56069
#        96799
#        128129
#        151549
#        182310
#        202544
#        234834
#        266539
#        292365
#
# Disc length: 4167 seconds
#
# Revision: 0
# Processed by: cddbd v1.5.2PL0 Copyright (c) Steve Scherf et al.
# Submitted via: ExactAudioCopy v0.99pb5
#
DISCID=8610450b
DTITLE=Boogie House - Just For Fun
DYEAR=1998
DGENRE=Blues
TTITLE0=Have A Good Time
TTITLE1=Deep Sea Diver
TTITLE2=King Bee
TTITLE3=Be Careful
TTITLE4=Low Down Dog
TTITLE5=I'll Be Up Someday
TTITLE6=Chicago Breakdown
TTITLE7=Messin' With The Kid
TTITLE8=Kansas City
TTITLE9=Boogie 'Round The Clock
TTITLE10=Poor Man
EXTD=
EXTT0=
EXTT1=
EXTT2=
EXTT3=
EXTT4=
EXTT5=
EXTT6=
EXTT7=
EXTT8=
EXTT9=
EXTT10=
PLAYORDER=
